<svg width="84" height="17" viewBox="0 0 84 17" fill="none" xmlns="http://www.w3.org/2000/svg">
<path d="M7.83925 2.54183C8.07873 1.80479 9.12146 1.80479 9.36094 2.54184L10.2166 5.17527C10.3237 5.50489 10.6309 5.72806 10.9774 5.72806H13.7464C14.5214 5.72806 14.8436 6.71975 14.2166 7.17527L11.9765 8.80283C11.6961 9.00654 11.5788 9.36764 11.6859 9.69725L12.5415 12.3307C12.781 13.0677 11.9374 13.6806 11.3105 13.2251L9.07033 11.5976C8.78994 11.3938 8.41026 11.3938 8.12987 11.5976L5.88973 13.2251C5.26276 13.6806 4.41918 13.0677 4.65866 12.3307L5.51432 9.69725C5.62142 9.36764 5.50409 9.00654 5.2237 8.80283L2.98356 7.17527C2.35659 6.71975 2.67881 5.72806 3.45379 5.72806H6.22275C6.56933 5.72806 6.8765 5.50489 6.9836 5.17527L7.83925 2.54183Z" fill="#FFB988"/>
<path d="M24.6393 2.54183C24.8788 1.80479 25.9215 1.80479 26.161 2.54184L27.0166 5.17527C27.1237 5.50489 27.4309 5.72806 27.7775 5.72806H30.5465C31.3214 5.72806 31.6437 6.71975 31.0167 7.17527L28.7765 8.80283C28.4962 9.00654 28.3788 9.36764 28.4859 9.69725L29.3416 12.3307C29.5811 13.0677 28.7375 13.6806 28.1105 13.2251L25.8704 11.5976C25.59 11.3938 25.2103 11.3938 24.9299 11.5976L22.6898 13.2251C22.0628 13.6806 21.2192 13.0677 21.4587 12.3307L22.3144 9.69725C22.4215 9.36764 22.3041 9.00654 22.0237 8.80283L19.7836 7.17527C19.1566 6.71975 19.4789 5.72806 20.2538 5.72806H23.0228C23.3694 5.72806 23.6765 5.50489 23.7836 5.17527L24.6393 2.54183Z" fill="#FFB988"/>
<path d="M41.4392 2.54183C41.6787 1.80479 42.7214 1.80479 42.9609 2.54184L43.8166 5.17527C43.9237 5.50489 44.2308 5.72806 44.5774 5.72806H47.3464C48.1214 5.72806 48.4436 6.71975 47.8166 7.17527L45.5765 8.80283C45.2961 9.00654 45.1788 9.36764 45.2859 9.69725L46.1415 12.3307C46.381 13.0677 45.5374 13.6806 44.9104 13.2251L42.6703 11.5976C42.3899 11.3938 42.0102 11.3938 41.7298 11.5976L39.4897 13.2251C38.8627 13.6806 38.0192 13.0677 38.2586 12.3307L39.1143 9.69725C39.2214 9.36764 39.1041 9.00654 38.8237 8.80283L36.5835 7.17527C35.9566 6.71975 36.2788 5.72806 37.0538 5.72806H39.8227C40.1693 5.72806 40.4765 5.50489 40.5836 5.17527L41.4392 2.54183Z" fill="#FFB988"/>
<path d="M58.2393 2.54183C58.4788 1.80479 59.5215 1.80479 59.761 2.54184L60.6166 5.17527C60.7237 5.50489 61.0309 5.72806 61.3775 5.72806H64.1464C64.9214 5.72806 65.2436 6.71975 64.6167 7.17527L62.3765 8.80283C62.0961 9.00654 61.9788 9.36764 62.0859 9.69725L62.9416 12.3307C63.181 13.0677 62.3375 13.6806 61.7105 13.2251L59.4703 11.5976C59.19 11.3938 58.8103 11.3938 58.5299 11.5976L56.2898 13.2251C55.6628 13.6806 54.8192 13.0677 55.0587 12.3307L55.9143 9.69725C56.0214 9.36764 55.9041 9.00654 55.6237 8.80283L53.3836 7.17527C52.7566 6.71975 53.0788 5.72806 53.8538 5.72806H56.6228C56.9694 5.72806 57.2765 5.50489 57.3836 5.17527L58.2393 2.54183Z" fill="#FFB988"/>
<path d="M75.0393 2.54183C75.2788 1.80479 76.3215 1.80479 76.561 2.54184L77.4167 5.17527C77.5238 5.50489 77.8309 5.72806 78.1775 5.72806H80.9465C81.7215 5.72806 82.0437 6.71975 81.4167 7.17527L79.1766 8.80283C78.8962 9.00654 78.7789 9.36764 78.886 9.69725L79.7416 12.3307C79.9811 13.0677 79.1375 13.6806 78.5105 13.2251L76.2704 11.5976C75.99 11.3938 75.6103 11.3938 75.3299 11.5976L73.0898 13.2251C72.4628 13.6806 71.6193 13.0677 71.8587 12.3307L72.7144 9.69725C72.8215 9.36764 72.7042 9.00654 72.4238 8.80283L70.1836 7.17527C69.5567 6.71975 69.8789 5.72806 70.6539 5.72806H73.4228C73.7694 5.72806 74.0766 5.50489 74.1837 5.17527L75.0393 2.54183Z" fill="#FFB988"/>
</svg>
